<?xml version="1.0" encoding="utf-8"?>
<svg version="1.1" width="128" height="128" viewBox="0 0 128 128" xmlns="http://www.w3.org/2000/svg">
  <g transform="matrix(0.8046875,0,0,0.8046875,12.463287358429419,11.960139391447363)">
    <svg viewBox="0 0 93 95" data-background-color="#343432" preserveAspectRatio="xMidYMid meet" height="130" width="128" xmlns="http://www.w3.org/2000/svg">
      <g id="tight-bounds" transform="matrix(1,0,0,1,0.03314830743751429,-0.24049999999999727)">
        <svg viewBox="0 0 92.93370338512496 95.481" height="95.481" width="92.93370338512496">
          <g>
            <svg viewBox="0 0 92.93370338512496 95.481" height="95.481" width="92.93370338512496">
              <g>
                <svg viewBox="0 0 92.93370338512496 95.481" height="95.481" width="92.93370338512496">
                  <g id="textblocktransform">
                    <svg viewBox="0 0 92.93370338512496 95.481" height="95.481" width="92.93370338512496" id="textblock">
                      <g>
                        <svg viewBox="0 0 92.93370338512496 95.481" height="95.481" width="92.93370338512496">
                          <g>
                            <svg viewBox="0 0 92.93370338512496 95.481" height="95.481" width="92.93370338512496">
                              <g>
                                <svg xmlns="http://www.w3.org/2000/svg" version="1.1" x="0" y="0" viewBox="3 1.7113560815863638 94.0000549087161 96.57658003302708" enable-background="new 0 0 100 100" height="95.481" width="92.93370338512496" class="icon-icon-0" data-fill-palette-color="accent" id="icon-0">
                                  <path d="M65.454 3.129c-0.026-0.735-0.647-1.442-1.385-1.417L50.721 2.185c-0.738 0.026-1.307 0.858-1.281 1.597l0.321 9.046 16.017-0.569L65.454 3.129z" data-fill-palette-color="accent" style="fill: rgb(255, 203, 31);"/>
                                  <rect x="51.172" y="17.86" transform="matrix(0.9994 -0.0353 0.0353 0.9994 -1.82 2.1228)" width="16.026" height="69.45" data-fill-palette-color="accent" style="fill: rgb(255, 203, 31);"/>
                                  <path d="M52.745 97.213c0.026 0.73 0.636 1.096 1.375 1.074l13.348-0.475c0.738-0.026 1.317-0.517 1.292-1.252l-0.149-4.216-16.016 0.563L52.745 97.213z" data-fill-palette-color="accent" style="fill: rgb(255, 203, 31);"/>
                                  <path d="M3 96.743c0 0.735 0.597 1.336 1.335 1.336h13.355c0.738 0 1.336-0.601 1.336-1.336V39.314H3V96.743z" data-fill-palette-color="accent" style="fill: rgb(255, 203, 31);"/>
                                  <path d="M19.027 13.938c0-0.738-0.598-1.335-1.336-1.335H4.336C3.598 12.603 3 13.201 3 13.938v9.349h16.027V13.938z" data-fill-palette-color="accent" style="fill: rgb(255, 203, 31);"/>
                                  <path d="M45.738 24.753c0-0.738-0.597-1.335-1.335-1.335H25.705c-0.738 0-1.335 0.597-1.335 1.335v9.219h21.369V24.753z" data-fill-palette-color="accent" style="fill: rgb(255, 203, 31);"/>
                                  <path d="M24.37 44.657v52.086c0 0.735 0.597 1.336 1.335 1.336h18.698c0.738 0 1.335-0.601 1.335-1.336V44.657H24.37z" data-fill-palette-color="accent" style="fill: rgb(255, 203, 31);"/>
                                  <path d="M81.102 96.926c0.104 0.735 0.777 1.241 1.513 1.138l13.22-1.879c0.73-0.104 1.252-0.673 1.153-1.408l-8.833-62.25-15.87 2.254L81.102 96.926z" data-fill-palette-color="accent" style="fill: rgb(255, 203, 31);"/>
                                  <path d="M86.09 17.979c-0.104-0.73-0.777-1.237-1.508-1.132l-13.225 1.875c-0.73 0.102-1.252 0.673-1.148 1.403l1.325 9.362 15.87-2.251L86.09 17.979z" data-fill-palette-color="accent" style="fill: rgb(255, 203, 31);"/>
                                </svg>
                              </g>
                            </svg>
                          </g>
                        </svg>
                      </g>
                    </svg>
                  </g>
                </svg>
              </g>
            </svg>
          </g>
        </svg>
        <rect width="92.93370338512496" height="95.481" fill="none" stroke="none" visibility="hidden"/>
      </g>
    </svg>
  </g>
</svg>