<?xml version="1.0" encoding="utf-8"?>
<svg version="1.1" width="2000" height="616" viewBox="0 0 2000 616" xmlns="http://www.w3.org/2000/svg">
  <g transform="matrix(1,0,0,1,-1.2121047364404376,-1.2193003700215286)">
    <svg viewBox="0 0 396 122" data-background-color="#343432" preserveAspectRatio="xMidYMid meet" height="616" width="2000" xmlns="http://www.w3.org/2000/svg">
      <g id="tight-bounds" transform="matrix(1,0,0,1,0.23999673781520414,0.2414848135432237)">
        <svg viewBox="0 0 395.52 121.5170247939674" height="121.5170247939674" width="395.52">
          <g>
            <svg viewBox="0 0 609.9179069820766 187.38726088447032" height="121.5170247939674" width="395.52">
              <g class="undefined-text-0" data-fill-palette-color="primary" id="text-0" transform="matrix(2.711827, 0, 0, 2.711827, 206.818359, 127.591469)">
                <path d="M 7.028 -13.225 C 7.028 -12.192 7.128 -11.425 7.328 -10.925 C 7.528 -10.425 7.661 -10.059 7.728 -9.825 C 6.228 -9.825 2.878 -12.725 2.878 -14.425 C 2.878 -16.159 3.378 -17.819 4.378 -19.405 C 5.378 -20.985 6.721 -22.392 8.408 -23.625 C 10.088 -24.859 12.021 -25.842 14.208 -26.575 C 16.388 -27.309 18.661 -27.675 21.028 -27.675 C 22.861 -27.675 24.445 -27.452 25.778 -27.005 C 27.111 -26.552 28.221 -25.959 29.108 -25.225 C 29.988 -24.492 30.638 -23.649 31.058 -22.695 C 31.471 -21.749 31.678 -20.759 31.678 -19.725 C 31.678 -18.225 31.245 -16.752 30.378 -15.305 C 29.511 -13.852 28.245 -12.659 26.578 -11.725 C 28.511 -11.292 29.995 -10.325 31.028 -8.825 C 32.061 -7.325 32.578 -5.625 32.578 -3.725 C 32.578 -2.525 32.405 -1.102 32.058 0.545 C 31.705 2.198 31.105 3.775 30.258 5.275 C 29.405 6.775 28.278 8.048 26.878 9.095 C 25.478 10.148 23.728 10.675 21.628 10.675 C 20.128 10.675 18.911 10.381 17.978 9.795 C 17.045 9.215 16.578 8.358 16.578 7.225 C 16.578 6.858 16.638 6.441 16.758 5.975 C 16.871 5.508 17.028 5.075 17.228 4.675 C 17.628 5.441 18.145 5.958 18.778 6.225 C 19.411 6.491 20.061 6.625 20.728 6.625 C 21.828 6.625 22.745 6.308 23.478 5.675 C 24.211 5.041 24.811 4.231 25.278 3.245 C 25.745 2.265 26.078 1.208 26.278 0.075 C 26.478 -1.059 26.578 -2.125 26.578 -3.125 C 26.578 -4.059 26.505 -4.942 26.358 -5.775 C 26.205 -6.609 25.921 -7.325 25.508 -7.925 C 25.088 -8.525 24.505 -9.002 23.758 -9.355 C 23.005 -9.702 22.045 -9.875 20.878 -9.875 C 20.711 -9.875 20.345 -9.859 19.778 -9.825 C 19.211 -9.792 18.645 -9.742 18.078 -9.675 L 13.928 9.825 L 8.428 9.825 L 15.328 -22.225 L 20.928 -22.975 L 18.528 -11.675 L 19.428 -11.675 C 20.561 -11.675 21.628 -11.935 22.628 -12.455 C 23.628 -12.969 24.505 -13.625 25.258 -14.425 C 26.005 -15.225 26.588 -16.119 27.008 -17.105 C 27.421 -18.085 27.628 -19.042 27.628 -19.975 C 27.628 -20.742 27.471 -21.482 27.158 -22.195 C 26.838 -22.915 26.361 -23.552 25.728 -24.105 C 25.095 -24.652 24.305 -25.085 23.358 -25.405 C 22.405 -25.719 21.295 -25.875 20.028 -25.875 C 18.495 -25.875 16.961 -25.619 15.428 -25.105 C 13.895 -24.585 12.505 -23.809 11.258 -22.775 C 10.005 -21.742 8.988 -20.425 8.208 -18.825 C 7.421 -17.225 7.028 -15.359 7.028 -13.225 Z M 59.328 -21.775 C 59.328 -20.242 58.945 -19.002 58.178 -18.055 C 57.411 -17.102 56.478 -16.625 55.378 -16.625 C 54.911 -16.625 54.535 -16.709 54.248 -16.875 C 53.968 -17.042 53.695 -17.309 53.428 -17.675 C 54.095 -18.075 54.645 -18.685 55.078 -19.505 C 55.511 -20.319 55.728 -21.175 55.728 -22.075 C 55.728 -22.542 55.661 -23.009 55.528 -23.475 C 55.395 -23.942 55.168 -24.349 54.848 -24.695 C 54.535 -25.049 54.111 -25.335 53.578 -25.555 C 53.045 -25.769 52.378 -25.875 51.578 -25.875 C 49.745 -25.875 48.268 -25.435 47.148 -24.555 C 46.035 -23.669 45.478 -22.375 45.478 -20.675 C 45.478 -19.409 45.751 -18.325 46.298 -17.425 C 46.851 -16.525 47.545 -15.675 48.378 -14.875 C 49.211 -14.075 50.118 -13.275 51.098 -12.475 C 52.085 -11.675 52.995 -10.769 53.828 -9.755 C 54.661 -8.735 55.351 -7.559 55.898 -6.225 C 56.451 -4.892 56.728 -3.275 56.728 -1.375 C 56.728 0.658 56.395 2.431 55.728 3.945 C 55.061 5.465 54.151 6.725 52.998 7.725 C 51.851 8.725 50.518 9.475 48.998 9.975 C 47.485 10.475 45.895 10.725 44.228 10.725 C 42.928 10.725 41.668 10.575 40.448 10.275 C 39.235 9.975 38.145 9.481 37.178 8.795 C 36.211 8.115 35.435 7.241 34.848 6.175 C 34.268 5.108 33.978 3.825 33.978 2.325 C 33.978 0.958 34.201 -0.242 34.648 -1.275 C 35.101 -2.309 35.678 -3.169 36.378 -3.855 C 37.078 -4.535 37.845 -5.052 38.678 -5.405 C 39.511 -5.752 40.311 -5.925 41.078 -5.925 C 41.945 -5.925 42.718 -5.675 43.398 -5.175 C 44.085 -4.675 44.528 -3.825 44.728 -2.625 C 44.028 -2.625 43.328 -2.535 42.628 -2.355 C 41.928 -2.169 41.295 -1.885 40.728 -1.505 C 40.161 -1.119 39.695 -0.609 39.328 0.025 C 38.961 0.658 38.778 1.425 38.778 2.325 C 38.778 3.125 38.918 3.841 39.198 4.475 C 39.485 5.108 39.861 5.631 40.328 6.045 C 40.795 6.465 41.335 6.791 41.948 7.025 C 42.568 7.258 43.211 7.375 43.878 7.375 C 44.678 7.375 45.468 7.231 46.248 6.945 C 47.035 6.665 47.735 6.225 48.348 5.625 C 48.968 5.025 49.478 4.275 49.878 3.375 C 50.278 2.475 50.478 1.425 50.478 0.225 C 50.478 -1.209 50.228 -2.502 49.728 -3.655 C 49.228 -4.802 48.595 -5.869 47.828 -6.855 C 47.061 -7.835 46.235 -8.785 45.348 -9.705 C 44.468 -10.619 43.645 -11.535 42.878 -12.455 C 42.111 -13.369 41.478 -14.335 40.978 -15.355 C 40.478 -16.369 40.228 -17.492 40.228 -18.725 C 40.228 -20.025 40.528 -21.225 41.128 -22.325 C 41.728 -23.425 42.545 -24.369 43.578 -25.155 C 44.611 -25.935 45.818 -26.552 47.198 -27.005 C 48.585 -27.452 50.078 -27.675 51.678 -27.675 C 52.245 -27.675 52.961 -27.619 53.828 -27.505 C 54.695 -27.385 55.535 -27.125 56.348 -26.725 C 57.168 -26.325 57.868 -25.732 58.448 -24.945 C 59.035 -24.165 59.328 -23.109 59.328 -21.775 Z M 76.828 3.875 C 76.828 4.575 76.928 5.158 77.128 5.625 C 77.321 6.091 77.721 6.325 78.328 6.325 C 79.888 6.325 81.455 4.508 83.028 0.875 L 84.878 0.875 C 84.071 2.975 83.271 4.641 82.478 5.875 C 81.678 7.108 80.901 8.031 80.148 8.645 C 79.401 9.265 78.701 9.668 78.048 9.855 C 77.401 10.035 76.828 10.125 76.328 10.125 C 74.595 10.125 73.361 9.581 72.628 8.495 C 71.895 7.415 71.528 6.075 71.528 4.475 C 71.528 3.375 71.651 2.225 71.898 1.025 C 72.151 -0.175 72.428 -1.359 72.728 -2.525 C 73.021 -3.692 73.295 -4.819 73.548 -5.905 C 73.795 -6.985 73.918 -7.975 73.918 -8.875 C 73.918 -9.709 73.771 -10.375 73.478 -10.875 C 73.178 -11.375 72.595 -11.625 71.728 -11.625 C 69.595 -11.625 67.741 -9.842 66.168 -6.275 L 62.728 9.825 L 57.728 9.825 L 65.078 -24.475 L 70.228 -25.175 L 67.278 -11.425 C 67.911 -12.292 68.541 -12.992 69.168 -13.525 C 69.808 -14.059 70.418 -14.469 70.998 -14.755 C 71.585 -15.035 72.135 -15.219 72.648 -15.305 C 73.161 -15.385 73.638 -15.425 74.078 -15.425 C 75.078 -15.425 75.911 -15.275 76.578 -14.975 C 77.245 -14.675 77.775 -14.269 78.168 -13.755 C 78.575 -13.235 78.851 -12.635 78.998 -11.955 C 79.151 -11.269 79.228 -10.542 79.228 -9.775 C 79.228 -8.675 79.101 -7.525 78.848 -6.325 C 78.601 -5.125 78.328 -3.942 78.028 -2.775 C 77.728 -1.609 77.451 -0.459 77.198 0.675 C 76.951 1.808 76.828 2.875 76.828 3.875 Z M 100.568 -10.275 C 100.568 -7.442 99.461 -5.152 97.248 -3.405 C 95.028 -1.652 91.968 -0.575 88.068 -0.175 C 88.035 0.091 88.018 0.351 88.018 0.605 C 88.018 0.851 88.018 1.108 88.018 1.375 C 88.018 3.075 88.345 4.325 88.998 5.125 C 89.645 5.925 90.768 6.325 92.368 6.325 C 93.968 6.325 95.551 5.908 97.118 5.075 C 98.685 4.241 100.118 2.841 101.418 0.875 L 103.018 0.875 C 102.351 2.108 101.551 3.281 100.618 4.395 C 99.685 5.515 98.651 6.498 97.518 7.345 C 96.385 8.198 95.178 8.875 93.898 9.375 C 92.611 9.875 91.301 10.125 89.968 10.125 C 89.001 10.125 88.078 9.975 87.198 9.675 C 86.311 9.375 85.528 8.908 84.848 8.275 C 84.161 7.641 83.611 6.815 83.198 5.795 C 82.778 4.781 82.568 3.558 82.568 2.125 C 82.568 1.191 82.668 0.108 82.868 -1.125 C 83.068 -2.359 83.378 -3.625 83.798 -4.925 C 84.211 -6.225 84.761 -7.509 85.448 -8.775 C 86.128 -10.042 86.935 -11.169 87.868 -12.155 C 88.801 -13.135 89.878 -13.925 91.098 -14.525 C 92.311 -15.125 93.685 -15.425 95.218 -15.425 C 95.918 -15.425 96.585 -15.352 97.218 -15.205 C 97.851 -15.052 98.418 -14.785 98.918 -14.405 C 99.418 -14.019 99.818 -13.492 100.118 -12.825 C 100.418 -12.159 100.568 -11.309 100.568 -10.275 Z M 95.668 -12.975 C 94.735 -12.975 93.868 -12.652 93.068 -12.005 C 92.268 -11.352 91.561 -10.509 90.948 -9.475 C 90.328 -8.442 89.795 -7.285 89.348 -6.005 C 88.895 -4.719 88.551 -3.425 88.318 -2.125 C 91.118 -2.559 93.351 -3.542 95.018 -5.075 C 96.685 -6.609 97.518 -8.509 97.518 -10.775 C 97.518 -11.342 97.411 -11.852 97.198 -12.305 C 96.978 -12.752 96.468 -12.975 95.668 -12.975 Z M 106.818 -24.475 L 112.018 -25.175 L 106.168 1.825 C 106.001 2.491 105.918 3.241 105.918 4.075 C 105.918 4.641 106.018 5.158 106.218 5.625 C 106.418 6.091 106.835 6.325 107.468 6.325 C 108.268 6.325 108.921 5.932 109.863 5.085 C 110.978 4.083 112.34 2.575 112.933 0.875 L 114.422 0.875 C 113.622 2.975 112.661 4.615 111.859 5.915 C 111.143 7.075 110.222 7.991 109.475 8.625 C 108.722 9.258 107.878 9.668 107.198 9.855 C 106.511 10.035 105.901 10.125 105.368 10.125 C 104.501 10.125 103.785 9.975 103.218 9.675 C 102.651 9.375 102.201 8.975 101.868 8.475 C 101.535 7.975 101.295 7.391 101.148 6.725 C 100.995 6.058 100.918 5.341 100.918 4.575 C 100.918 3.975 100.961 3.358 101.048 2.725 C 101.128 2.091 101.235 1.475 101.368 0.875 L 106.818 -24.475 Z M 121.118 -17.575 L 119.779 -12.171 L 126.618 -12.175 L 125.86 -8.421 L 119.218 -8.425 L 114.468 13.825 C 114.101 15.625 113.724 17.075 113.238 18.175 C 112.752 19.275 111.48 20.628 111.48 20.628 C 109.918 22.214 109.1 21.947 109.034 22.044 C 108.968 22.141 117.839 -25.741 116.4 -18.23 C 116.524 -19.225 116.811 -20.275 117.188 -21.372 C 117.485 -22.475 118.008 -23.485 118.688 -24.405 C 119.375 -25.319 120.251 -26.082 121.318 -26.695 C 122.385 -27.315 123.735 -27.625 125.368 -27.625 C 127.301 -27.625 128.741 -27.065 129.688 -25.945 C 130.641 -24.832 131.118 -23.475 131.118 -21.875 C 131.118 -21.275 131.068 -20.709 130.968 -20.175 L 128.968 -20.175 C 129.068 -20.509 129.118 -20.909 129.118 -21.375 C 129.118 -22.142 128.918 -22.852 128.518 -23.505 C 128.118 -24.152 127.468 -24.475 126.568 -24.475 C 125.668 -24.475 124.925 -24.309 124.338 -23.975 C 123.758 -23.642 123.268 -23.175 122.868 -22.575 C 122.468 -21.975 122.135 -21.252 121.868 -20.405 C 121.601 -19.552 121.351 -18.609 121.118 -17.575 Z" data-fill-palette-color="primary" style="fill: rgb(255, 203, 31);"/>
              </g>
              <g transform="matrix(1,0,0,1,214.39790698207668,25.897949948577306)">
                <svg viewBox="0 0 395.52 135.5913609873157" height="135.5913609873157" width="395.52">
                  <g id="textblocktransform">
                    <svg viewBox="0 0 395.52 135.5913609873157" height="135.5913609873157" width="395.52" id="textblock">
                      <g>
                        <svg viewBox="0 0 395.52 135.5913609873157" height="135.5913609873157" width="395.52">
                          <g transform="matrix(1,0,0,1,0,0)">
                            <svg width="395.52" viewBox="2.799999952316284 -37.5 145.83999633789062 50" height="135.5913609873157" data-palette-color="#ffcb1f"/>
                          </g>
                        </svg>
                      </g>
                    </svg>
                  </g>
                </svg>
              </g>
              <g>
                <svg viewBox="0 0 182.38804084563515 187.38726088447032" height="187.38726088447032" width="182.38804084563515">
                  <g>
                    <svg xmlns="http://www.w3.org/2000/svg" version="1.1" x="0" y="0" viewBox="3 1.711355447769165 94.00005340576172 96.57657623291016" enable-background="new 0 0 100 100" height="187.38726088447032" width="182.38804084563515" class="icon-icon-0" data-fill-palette-color="accent" id="icon-0">
                      <path d="M65.454 3.129c-0.026-0.735-0.647-1.442-1.385-1.417L50.721 2.185c-0.738 0.026-1.307 0.858-1.281 1.597l0.321 9.046 16.017-0.569L65.454 3.129z" data-fill-palette-color="accent" style="fill: rgb(245, 245, 245);"/>
                      <rect x="51.172" y="17.86" transform="matrix(0.9994 -0.0353 0.0353 0.9994 -1.82 2.1228)" width="16.026" height="69.45" data-fill-palette-color="accent" style="fill: rgb(245, 245, 245);"/>
                      <path d="M52.745 97.213c0.026 0.73 0.636 1.096 1.375 1.074l13.348-0.475c0.738-0.026 1.317-0.517 1.292-1.252l-0.149-4.216-16.016 0.563L52.745 97.213z" data-fill-palette-color="accent" style="fill: rgb(245, 245, 245);"/>
                      <path d="M3 96.743c0 0.735 0.597 1.336 1.335 1.336h13.355c0.738 0 1.336-0.601 1.336-1.336V39.314H3V96.743z" data-fill-palette-color="accent" style="fill: rgb(245, 245, 245);"/>
                      <path d="M19.027 13.938c0-0.738-0.598-1.335-1.336-1.335H4.336C3.598 12.603 3 13.201 3 13.938v9.349h16.027V13.938z" data-fill-palette-color="accent" style="fill: rgb(245, 245, 245);"/>
                      <path d="M45.738 24.753c0-0.738-0.597-1.335-1.335-1.335H25.705c-0.738 0-1.335 0.597-1.335 1.335v9.219h21.369V24.753z" data-fill-palette-color="accent" style="fill: rgb(245, 245, 245);"/>
                      <path d="M24.37 44.657v52.086c0 0.735 0.597 1.336 1.335 1.336h18.698c0.738 0 1.335-0.601 1.335-1.336V44.657H24.37z" data-fill-palette-color="accent" style="fill: rgb(245, 245, 245);"/>
                      <path d="M81.102 96.926c0.104 0.735 0.777 1.241 1.513 1.138l13.22-1.879c0.73-0.104 1.252-0.673 1.153-1.408l-8.833-62.25-15.87 2.254L81.102 96.926z" data-fill-palette-color="accent" style="fill: rgb(245, 245, 245);"/>
                      <path d="M86.09 17.979c-0.104-0.73-0.777-1.237-1.508-1.132l-13.225 1.875c-0.73 0.102-1.252 0.673-1.148 1.403l1.325 9.362 15.87-2.251L86.09 17.979z" data-fill-palette-color="accent" style="fill: rgb(245, 245, 245);"/>
                    </svg>
                  </g>
                </svg>
              </g>
            </svg>
          </g>
        </svg>
        <rect width="395.52" height="121.5170247939674" fill="none" stroke="none" visibility="hidden"/>
      </g>
    </svg>
  </g>
</svg>